<svg width="100" height="100" viewBox="0 0 100 100" fill="none" xmlns="http://www.w3.org/2000/svg">
<path d="M29.3447 47.062C27.9658 45.6848 25.7251 45.6848 24.3462 47.062C22.9673 48.4393 22.9673 50.6773 24.3462 52.0546L40.6345 68.3232C41.3239 69.0118 42.1857 69.3562 43.1337 69.3562C43.2199 69.3562 43.2199 69.3562 43.3061 69.3562C44.2541 69.2701 45.2021 68.8397 45.8915 68.065L86.6553 19.259C87.8618 17.7956 87.6895 15.5576 86.2244 14.2665C84.7593 13.0614 82.5186 13.2335 81.2259 14.6968L42.8752 60.5762L29.3447 47.062Z" fill="#17AB13"/>
<path d="M76.3998 7.63868C56.5781 -4.7565 31.1546 -1.82986 14.6077 14.697C-4.86925 34.1506 -4.86925 65.9133 14.6077 85.3668C24.3462 95.0936 37.1872 100 49.9421 100C62.6969 100 75.5379 95.0936 85.2764 85.3668C101.909 68.7538 104.753 43.2748 92.2571 23.477C91.223 21.8415 89.0684 21.325 87.431 22.358C85.7935 23.3909 85.2764 25.5428 86.3106 27.1783C97.0833 44.2217 94.584 66.0854 80.2779 80.3743C63.5587 97.0734 36.2393 97.0734 19.5201 80.3743C2.8009 63.6752 2.8009 36.3886 19.5201 19.6895C33.8262 5.48674 55.6301 2.99048 72.694 13.578C74.3314 14.611 76.4859 14.0945 77.5201 12.459C78.5543 10.8236 78.0372 8.67161 76.3998 7.63868Z" fill="#8D1AA8"/>
</svg>
