<svg width="30" height="24" viewBox="0 0 30 24" fill="none" xmlns="http://www.w3.org/2000/svg">
<path d="M15.2046 4.75628C16.6633 2.13934 17.3928 0.830872 18.4833 0.830872C19.5738 0.830872 20.3031 2.13934 21.7619 4.75628L22.1394 5.43332C22.5538 6.17697 22.7611 6.54879 23.0843 6.79413C23.4075 7.03946 23.81 7.13053 24.6151 7.31267L25.3478 7.47849C28.1807 8.11943 29.5972 8.43991 29.934 9.52358C30.2711 10.6072 29.3055 11.7364 27.3743 13.9946L26.8746 14.5789C26.3258 15.2206 26.0514 15.5415 25.928 15.9385C25.8045 16.3354 25.846 16.7636 25.929 17.6197L26.0045 18.3993C26.2966 21.4124 26.4425 22.9189 25.5602 23.5887C24.678 24.2584 23.3518 23.6477 20.6995 22.4265L20.0133 22.1106C19.2596 21.7635 18.8828 21.59 18.4833 21.59C18.0838 21.59 17.7069 21.7635 16.9533 22.1106L16.267 22.4265C13.6147 23.6477 12.2885 24.2584 11.4063 23.5887C10.524 22.9189 10.67 21.4124 10.962 18.3993L11.0375 17.6197C11.1205 16.7636 11.162 16.3354 11.0385 15.9385C10.9151 15.5415 10.6407 15.2206 10.0919 14.5789L9.5923 13.9946C7.66107 11.7364 6.69546 10.6072 7.03244 9.52358C7.36942 8.43991 8.78582 8.11943 11.6186 7.47849L12.3515 7.31267C13.1564 7.13053 13.5589 7.03946 13.8821 6.79413C14.2053 6.54879 14.4126 6.17697 14.8271 5.43332L15.2046 4.75628Z" fill="#8D1AA8"/>
<path opacity="0.5" fill-rule="evenodd" clip-rule="evenodd" d="M10.7907 2.56189C7.93787 1.73982 4.87773 2.17404 1.92519 3.90312L1.62552 4.07863C1.11096 4.37997 0.449538 4.20711 0.148183 3.69255C-0.153158 3.17799 0.0196967 2.51655 0.53426 2.21521L0.833931 2.03972C4.23204 0.049695 7.89922 -0.518624 11.3886 0.486892L11.6878 0.573126C12.2608 0.73825 12.5915 1.3366 12.4264 1.9096C12.2613 2.48259 11.6629 2.81324 11.0899 2.64812L10.7907 2.56189ZM5.16288 9.37711C5.2135 9.9713 4.77287 10.494 4.17871 10.5446C3.95822 10.5634 3.78917 10.5741 3.64749 10.5831C3.39213 10.5993 3.22574 10.6099 3.0074 10.6518C2.72452 10.7061 2.35723 10.821 1.69069 11.1542C1.15733 11.421 0.508778 11.2048 0.242103 10.6714C-0.0245716 10.138 0.191602 9.48946 0.724966 9.22285C1.49803 8.83631 2.05912 8.63493 2.60034 8.53105C2.95578 8.46283 3.3227 8.43893 3.65266 8.41744C3.77257 8.40962 3.88759 8.40213 3.99542 8.39295C4.58957 8.34233 5.11226 8.78295 5.16288 9.37711ZM6.71997 17.8991C5.01552 17.4996 3.21975 17.8958 1.87606 18.9545C1.40768 19.3236 0.728795 19.243 0.359735 18.7747C-0.00931167 18.3063 0.0712063 17.6275 0.539601 17.2584C2.40792 15.7862 4.87903 15.2498 7.21264 15.7966C7.79322 15.9326 8.15359 16.5137 8.01754 17.0942C7.8815 17.6748 7.30055 18.0352 6.71997 17.8991Z" fill="#8D1AA8"/>
</svg>
