<svg width="60" height="70" viewBox="0 0 60 70" fill="none" xmlns="http://www.w3.org/2000/svg">
<path d="M49.2482 60.48H48.2882V35.04H11.4242V60.48H10.4642V8.63999H11.4242V34.08H48.2882V8.63999H49.2482V60.48ZM41.2802 69.12H56.1602C57.3762 69.12 58.2722 68.864 58.8482 68.352C59.3602 67.776 59.6162 66.88 59.6162 65.664V3.45599C59.6162 2.23999 59.3602 1.37599 58.8482 0.863993C58.2722 0.287992 57.3762 -7.62939e-06 56.1602 -7.62939e-06H41.2802C40.0642 -7.62939e-06 39.2002 0.287992 38.6882 0.863993C38.1122 1.37599 37.8242 2.23999 37.8242 3.45599V24.288H21.7922V3.45599C21.7922 2.23999 21.5362 1.37599 21.0242 0.863993C20.4482 0.287992 19.5522 -7.62939e-06 18.3362 -7.62939e-06H3.45623C2.24023 -7.62939e-06 1.37623 0.287992 0.864229 0.863993C0.288229 1.37599 0.000228882 2.23999 0.000228882 3.45599V65.664C0.000228882 66.88 0.288229 67.776 0.864229 68.352C1.37623 68.864 2.24023 69.12 3.45623 69.12H18.3362C19.5522 69.12 20.4482 68.864 21.0242 68.352C21.5362 67.776 21.7922 66.88 21.7922 65.664V44.352H37.8242V65.664C37.8242 66.88 38.1122 67.776 38.6882 68.352C39.2002 68.864 40.0642 69.12 41.2802 69.12Z" fill="white"/>
</svg>
