<svg width="40" height="47" viewBox="0 0 40 47" fill="none" xmlns="http://www.w3.org/2000/svg">
<path d="M6.91198 40.3201H7.55198V23.3601H32.128V40.3201H32.768V5.76007H32.128V22.7201H7.55198V5.76007H6.91198V40.3201ZM12.224 46.0801H2.30398C1.49332 46.0801 0.895985 45.9094 0.511985 45.5681C0.170651 45.1841 -1.52588e-05 44.5867 -1.52588e-05 43.7761V2.30408C-1.52588e-05 1.49341 0.170651 0.917411 0.511985 0.576077C0.895985 0.192076 1.49332 7.62939e-05 2.30398 7.62939e-05H12.224C13.0347 7.62939e-05 13.6107 0.192076 13.952 0.576077C14.336 0.917411 14.528 1.49341 14.528 2.30408V16.1921H25.216V2.30408C25.216 1.49341 25.3867 0.917411 25.728 0.576077C26.112 0.192076 26.7093 7.62939e-05 27.52 7.62939e-05H37.44C38.2507 7.62939e-05 38.8267 0.192076 39.168 0.576077C39.552 0.917411 39.744 1.49341 39.744 2.30408V43.7761C39.744 44.5867 39.552 45.1841 39.168 45.5681C38.8267 45.9094 38.2507 46.0801 37.44 46.0801H27.52C26.7093 46.0801 26.112 45.9094 25.728 45.5681C25.3867 45.1841 25.216 44.5867 25.216 43.7761V29.5681H14.528V43.7761C14.528 44.5867 14.336 45.1841 13.952 45.5681C13.6107 45.9094 13.0347 46.0801 12.224 46.0801Z" fill="#8D1AA8"/>
</svg>
