<svg width="86" height="47" viewBox="0 0 86 47" fill="none" xmlns="http://www.w3.org/2000/svg">
<path d="M6.91198 40.3201H7.55198V23.3601H32.128V40.3201H32.768V5.76007H32.128V22.7201H7.55198V5.76007H6.91198V40.3201ZM12.224 46.0801H2.30398C1.49332 46.0801 0.895985 45.9094 0.511985 45.5681C0.170651 45.1841 -1.52588e-05 44.5867 -1.52588e-05 43.7761V2.30408C-1.52588e-05 1.49341 0.170651 0.917411 0.511985 0.576077C0.895985 0.192076 1.49332 7.62939e-05 2.30398 7.62939e-05H12.224C13.0347 7.62939e-05 13.6107 0.192076 13.952 0.576077C14.336 0.917411 14.528 1.49341 14.528 2.30408V16.1921H25.216V2.30408C25.216 1.49341 25.3867 0.917411 25.728 0.576077C26.112 0.192076 26.7093 7.62939e-05 27.52 7.62939e-05H37.44C38.2507 7.62939e-05 38.8267 0.192076 39.168 0.576077C39.552 0.917411 39.744 1.49341 39.744 2.30408V43.7761C39.744 44.5867 39.552 45.1841 39.168 45.5681C38.8267 45.9094 38.2507 46.0801 37.44 46.0801H27.52C26.7093 46.0801 26.112 45.9094 25.728 45.5681C25.3867 45.1841 25.216 44.5867 25.216 43.7761V29.5681H14.528V43.7761C14.528 44.5867 14.336 45.1841 13.952 45.5681C13.6107 45.9094 13.0347 46.0801 12.224 46.0801ZM83.4425 46.0801H50.8665C50.0558 46.0801 49.4585 45.9094 49.0745 45.5681C48.7332 45.1841 48.5625 44.5867 48.5625 43.7761V2.30408C48.5625 1.49341 48.7332 0.917411 49.0745 0.576077C49.4585 0.192076 50.0558 7.62939e-05 50.8665 7.62939e-05H60.7865C61.5972 7.62939e-05 62.1732 0.192076 62.5145 0.576077C62.8985 0.917411 63.0905 1.49341 63.0905 2.30408V33.9841H71.8585V23.6161C71.8585 22.8054 72.0292 22.2294 72.3705 21.8881C72.7545 21.5041 73.3518 21.3121 74.1625 21.3121H83.4425C84.2532 21.3121 84.8292 21.5041 85.1705 21.8881C85.5545 22.2294 85.7465 22.8054 85.7465 23.6161V43.7761C85.7465 44.5867 85.5545 45.1841 85.1705 45.5681C84.8292 45.9094 84.2532 46.0801 83.4425 46.0801ZM55.5385 40.3201H79.0905V27.0721H78.4505V39.6801H56.1785V5.76007H55.5385V40.3201Z" fill="#8D1AA8"/>
</svg>
